<svg width="584" height="620" fill="none" xmlns="http://www.w3.org/2000/svg"><path d="m241 611-9.3-409.6H58L60.6 611H241Z" fill="#F1F6FF"/><path d="M302.9 608.9V337.8l209.7 6v265H302.9Z" fill="#FEFCED"/><path d="M58 201.4 60.6 611h98.7l-4.7-409.6H58Z" fill="#7398F7"/><path d="M183 159.9h-72v41.5h72v-41.5Z" fill="#1F1D42"/><path d="M111 159.9v41.5h48.7c-23.4-5.1-30.6-29.8-31.3-41.5H111Z" fill="#1F1717"/><path d="m152.5 89.1-8.5-.8c-2-.9-2.5-10.6 5.5-8.5 6.5 1.7 4.7 7 3 9.3Z" fill="#0E173D"/><path d="m152.5 89.1-8.5-.8v12.2l8.5.9V89.1Z" fill="#0E173D"/><path d="m144 100.5 8.5.9 31.3 22.4h-73.2l33.4-23.3Z" fill="#1F1D42"/><path d="M323.6 403H317v48.3h-3v5h12.7v-6.7h-3V403Z" fill="#1B2A63"/><path d="M512.6 612.3H302.9v-139l209.7 3v136Z" fill="#A3BDFF"/><path d="m448.2 242.5-226.7-7.2L303 337.8l217.7 6.3-72.4-101.6Z" fill="#063183"/><path d="m302.9 337.8 217.7 6.3L316 238.3l-94.5-3L303 337.8Z" fill="#7087FB"/><path d="M221.5 235.3 303 337.8v268.1l-150 7.2V337.8l40.3-53h-9l37.3-49.5Z" fill="#CFDEF3"/><path d="M250.8 297.5h-44.5V351h44.5v-53.4Z" fill="#0C183F"/><path fill="#1F326B" d="M211.4 303h15.2v18.6h-15.2zM232.6 303h15.2v18.6h-15.2zM232.6 328.5h15.2v18.6h-15.2z"/><path d="M110.6 123.8h78.3v2.2h-84.3v-2.2h6Z" stroke="#000"/><path d="M150.8 378H513" stroke="#000" stroke-width="4"/><path d="M151.7 486.5h359.6" stroke="#000" stroke-width="5"/><path d="M151.7 486.5h149.5" stroke="#5267FA" stroke-width="6"/><path fill="#1F326B" d="M211.4 328.5h15.2v18.6h-15.2z"/><path d="M113.5 289.9H91.1v61h24.1l-1.7-61Z" fill="#0E173D"/><path d="M113.5 395.4H91.1v61h24.1l-1.7-61Z" fill="#0C193F"/><path d="M114.8 267H91.9v-46.6c5.4-15.2 14.4-6.3 18.2 0l4.7 46.6Z" fill="#1F1D42"/><path d="M352 247.1H328l-21.2-6.3v-41.6l21.2-.5 25.8-.7-.1 3.4L352 247Z" fill="#1F326B"/><path d="M352 247.1H328V198.7l25.8-.7-.1 3.4L352 247Z" fill="#FEFDE8"/><path d="m306.7 199.3 21.2-.6 25.8-.7-.1 3.4h-46.9v-2.2Z" fill="#112F7F"/><path fill="#0C1942" d="M180.9 126h1.7v33.9h-1.7zM241 166.6v1.7H51.4v-1.7zM241 199.6v1.7H51.2v-1.7z"/><path d="M58 231.9h174.5" stroke="#18265D" stroke-width="4"/><path fill="#081334" d="M241 186v1.8H51.3V186z"/><path fill="#132355" d="M110.6 126h1.7v33.9h-1.7zM128.4 131.9h1.7v28h-1.7zM131.7 131.9h1.7v28h-1.7zM136.8 131.9h1.7v28h-1.7z"/><path d="m221.5 235.3 5.8 8.9m75.6 93.6-6.2-7.7m-69.4-86 226 5.6m-226-5.5 10.2 12.7m0 0 224.6 5m-224.6-5 11.3 14m0 0 222 3.3m-222-3.4 9.2 11.4m0 0 221.6 4.3M258 282.2l11 13.6m0 0 219.4 3.1M269 296l9.2 11.4m0 0 219.5 4.7m-219.5-4.7 12.4 15.2m0 0h214.6m-214.6 0 6.1 7.6m0 0 216.2 3.2" stroke="#A3BDFF" stroke-width="4"/><path fill="#121B3A" d="M83.5 168.3h1.7v31.3h-1.7zM51.3 168.3H53v31.3h-1.7zM239.3 168.3h1.7v31.3h-1.7z"/><path d="M377.4 511H364v68.7h13.5V511Z" fill="#0C183F"/><path d="M363.9 579.7h13.5v-34.4H364v34.4ZM489.7 548.3h-22.5v32.2h22.5v-32.2Z" fill="#17275F"/><path d="M148.7 79.8 147 1" stroke="#000" stroke-width="3"/><path fill="#121B3A" d="M210.5 168.3h1.7v31.3h-1.7zM151.2 168.3h1.7v31.3h-1.7zM77.5 168.3h1.7v31.3h-1.7zM204.6 168.3h1.7v31.3h-1.7z"/><path fill="#121B3A" d="M204.6 168.3h1.7v31.3h-1.7zM145.3 168.3h1.7v31.3h-1.7zM158.9 131.9h1.7v28h-1.7zM162.2 131.9h1.7v28h-1.7zM152.9 131.9h1.7v28h-1.7z"/><path d="M467.2 580.5h22.5v-16.1h-22.5v16.1Z" fill="#0F1C49"/><path d="M503.7 556.4h-8.5V574l8.5-.4v-17.3Z" fill="#FAF2E2"/><path d="M200.4 511.4v37.3h4.2v56h7.2v-58.5h-4.7v-28.4h41.6v28.4h-6.8v58.4h4.2v-55.9h8v-37.3h-53.7Z" fill="#0D0808"/><path d="M241.9 546.2v58.4h-30v-58.4H207v-28.4h41.6v28.4h-6.8Z" fill="#17275F"/><path d="M584 611.4H0v8.6h584v-8.6Z" fill="#091D39"/><path d="M571.9 611.4v-34.7m-61.9 0v34.7m-63.5-34.7v34.7m-60.6-34.7v34.7m-62.7-34.7v34.7m-64-34.7v34.7m-57.6-34.7v34.7m-64.8-34.7v34.7m-62.7-34.7v34.7m-59.7-34.7v34.7" stroke="#000" stroke-width="4"/><path d="M571.9 582c-13.3 11.6-44.3 27.8-61.9 0-14.4 8.8-47.2 20.8-63.5-.2-12.7 8.4-42.6 21.5-60.6 5.9-12.6 5.8-42.7 13.9-62.7 0-17.5 3.7-54.8 8.8-64 0-11.8 3.7-40 8.8-57.6 0-17 3.7-54 8.8-64.8 0-18 6.2-47 14.4-62.7 0-17 3.7-50.7 9.6-60.6.8" stroke="#000" stroke-width="3"/><circle cx="572" cy="575" r="3" fill="#06162A"/><circle cx="510" cy="574.6" r="3" fill="#06162A"/><circle cx="446.5" cy="575.4" r="3" fill="#06162A"/><circle cx="386" cy="575" r="3" fill="#06162A"/><circle cx="323" cy="575" r="3" fill="#06162A"/><circle cx="259.2" cy="575.4" r="3" fill="#06162A"/><circle cx="201.6" cy="574.6" r="3" fill="#06162A"/><circle cx="137" cy="574.6" r="3" fill="#06162A"/><circle cx="74" cy="576.3" r="3" fill="#06162A"/><circle cx="14" cy="578" r="3" fill="#06162A"/><path d="m56.8 45.5 12.7 11 12.7-11M8.5 38.7l12.7 11 12.7-11M63.5 16.7l12.7 11 12.8-11M133 21l12.7 11 12.7-11" stroke="#000" stroke-width="4"/><path d="M255.9 390.3H210l1.7 67.8h44v-67.8Z" fill="#0F1F4C"/><path d="M244.8 401.7h-23.7v45h23.7v-45Z" fill="#142553"/></svg>