<svg width="515" height="408" fill="none" xmlns="http://www.w3.org/2000/svg"><g clip-path="url(#a)"><path d="M310 104.2h-2.4v-66A38.2 38.2 0 0 0 269.5 0H130a38 38 0 0 0-38.1 38.2v362a38.2 38.2 0 0 0 38.1 38.2h139.5a38 38 0 0 0 38-38.2v-249h2.5v-47Z" fill="#F4F4F4"/><path d="M271 10h-18.2a13.6 13.6 0 0 1-12.5 18.6h-80A13.5 13.5 0 0 1 148 9.9h-17a28.4 28.4 0 0 0-28.5 28.6V400a28.6 28.6 0 0 0 28.5 28.5H271a28.4 28.4 0 0 0 28.5-28.5V38.5A28.6 28.6 0 0 0 271 9.9Z" fill="#fff"/><path d="M201 223.8a66 66 0 0 1-64.8-79.1 66.2 66.2 0 0 1 90-48.3 66 66 0 0 1 21.4 108 66 66 0 0 1-46.7 19.4Zm0-131.1a64.7 64.7 0 0 0-63.6 77.6 65 65 0 0 0 88.3 47.3 64.8 64.8 0 0 0 21-105.9 64.8 64.8 0 0 0-45.8-19Z" fill="#3F3D56"/><path d="M225.2 138.4c5.6-4.8 9-12.4 8.2-19.8a18.5 18.5 0 0 0-13.7-15.7c-7.3-1.5-15.5 2.8-17.7 9.9-1.2-13.7-2.6-28-9.9-39.5-6.5-10.6-17.9-18.1-30.2-19.5a37.4 37.4 0 0 0-33 13.5c-7.7 9.8-9.5 24-4.2 35.1 4 8.3 11.3 14.4 19 19.4 24.4 16 54.6 21.3 83.4 17l-2-.4Z" fill="#CFDEF3"/><path d="M141.1 57.9a200 200 0 0 1 59.2 80.2c.5 1.4-1.7 2-2.3.6a199.6 199.6 0 0 0-58.5-79.2c-1.2-1 .4-2.6 1.6-1.6Z" fill="#fff"/><path d="M144.6 288.7a7 7 0 1 0 0-13.8 7 7 0 0 0 0 13.8Z" fill="#17275F"/><path d="M259.2 286.8h-88a5 5 0 0 1-5-5 5 5 0 0 1 5-5h88a5 5 0 0 1 5 5 5 5 0 0 1-5 5Z" fill="#DAE9FF"/><path d="M231.9 286.9h-61a5 5 0 0 1-3.7-8.7 5 5 0 0 1 3.6-1.5H232a5 5 0 0 1 3.6 8.7 5 5 0 0 1-3.6 1.5Z" fill="#5784F5"/><path d="M144.6 319a7 7 0 1 0 0-13.9 7 7 0 0 0 0 13.9Z" fill="#17275F"/><path d="M259.2 317h-88a5 5 0 0 1-5-5 5 5 0 0 1 5-5h88a5 5 0 0 1 5 5 5 5 0 0 1-5 5Z" fill="#DAE9FF"/><path d="M144.6 349.2a7 7 0 1 0 0-13.8 7 7 0 0 0 0 13.8Z" fill="#17275F"/><path d="M259.2 347.3h-88a5 5 0 0 1-5-5 5 5 0 0 1 5-5h88a5 5 0 0 1 5 5 5 5 0 0 1-5 5Z" fill="#DAE9FF"/><path d="M211.8 317.1h-41a5 5 0 0 1-5-5 5.1 5.1 0 0 1 5-5.2h41a5 5 0 0 1 3.6 8.7 5 5 0 0 1-3.6 1.5ZM248.2 347.4h-77.4a5 5 0 0 1-3.6-8.7 5 5 0 0 1 3.6-1.5h77.4a5 5 0 0 1 3.6 8.7 5 5 0 0 1-3.6 1.5Z" fill="#5784F5"/><path d="M235.9 147.3h-8.6v-25.6a2.8 2.8 0 0 1 2.8-2.8h3a2.8 2.8 0 0 1 2.8 2.8v25.6Z" fill="#3F3D56"/><path d="M241.1 190.9h-82.6l-.3-46.7a5.4 5.4 0 0 1 1.6-3.9l20.8-20.2c1-1 2.3-1.6 3.7-1.6l34.7-.3a5.4 5.4 0 0 1 4.1 2l16.5 20.2c1 1.2 1.5 2.7 1.5 4.2v46.3Z" fill="#161B3D"/><path d="M241.1 190.9h-44.4V149c0-1.2.5-2.5 1.3-3.4l19.3-22.7a5.3 5.3 0 0 1 4-1.9 5.3 5.3 0 0 1 4.2 2l14.4 17.1c.8 1 1.2 2.2 1.2 3.5v47.3Z" fill="#7398F6"/><path d="M222.3 174.8h-6.4a1.6 1.6 0 0 1-1.6-1.6v-5.4a1.6 1.6 0 0 1 1.6-1.6h6.4a1.6 1.6 0 0 1 1.6 1.6v5.4a1.6 1.6 0 0 1-1.6 1.6ZM222.3 161h-6.4a1.6 1.6 0 0 1-1.6-1.6V154a1.6 1.6 0 0 1 1.6-1.6h6.4a1.6 1.6 0 0 1 1.6 1.6v5.3a1.6 1.6 0 0 1-1.6 1.6ZM182.6 172.7h-6.4a1.6 1.6 0 0 1-1.6-1.6v-5.4a1.6 1.6 0 0 1 1.6-1.6h6.4a1.6 1.6 0 0 1 1.6 1.6v5.4a1.6 1.6 0 0 1-1.6 1.6ZM182.6 158.9h-6.4a1.6 1.6 0 0 1-1.6-1.6V152a1.6 1.6 0 0 1 1.6-1.6h6.4a1.6 1.6 0 0 1 1.6 1.6v5.3a1.6 1.6 0 0 1-1.6 1.6Z" fill="#fff"/><path d="M257.1 191.4H144.7a.6.6 0 0 1-.6-.6.6.6 0 0 1 .6-.7h112.4a.6.6 0 0 1 0 1.3Z" fill="#3F3D56"/></g><defs><clipPath id="a"><path fill="#fff" d="M0 0h515v439.4H0z"/></clipPath></defs></svg>